<svg width="43" height="166" viewBox="0 0 43 166" fill="none" xmlns="http://www.w3.org/2000/svg">
<path d="M20 164C20 164.552 20.4477 165 21 165C21.5523 165 22 164.552 22 164H20ZM1.44216 144.103C0.946799 143.859 0.347265 144.062 0.103065 144.558C-0.141135 145.053 0.0624739 145.653 0.557837 145.897L1.44216 144.103ZM20.1 165.436C20.3407 165.933 20.9388 166.141 21.4359 165.9C21.9329 165.659 22.1407 165.061 21.9 164.564L20.1 165.436ZM41.9422 145.897C42.4375 145.653 42.6411 145.053 42.3969 144.558C42.1527 144.062 41.5532 143.859 41.0578 144.103L41.9422 145.897ZM20.6 164.564C20.3593 165.061 20.5671 165.659 21.0641 165.9C21.5612 166.141 22.1593 165.933 22.4 165.436L20.6 164.564ZM20 4.65207e-08L20 164H22L22 -4.65207e-08L20 4.65207e-08ZM0.557837 145.897C5.85302 148.507 9.49669 150.873 12.4277 153.817C15.3579 156.76 17.6285 160.332 20.1 165.436L21.9 164.564C19.381 159.363 16.9954 155.57 13.845 152.406C10.6954 149.243 6.83434 146.761 1.44216 144.103L0.557837 145.897ZM41.0578 144.103C35.6657 146.761 31.8046 149.243 28.655 152.406C25.5046 155.57 23.119 159.363 20.6 164.564L22.4 165.436C24.8715 160.332 27.1421 156.76 30.0723 153.817C33.0033 150.873 36.647 148.507 41.9422 145.897L41.0578 144.103Z" fill="white"/>
</svg>
