<svg width="203" height="36" viewBox="0 0 203 36" fill="none" xmlns="http://www.w3.org/2000/svg">
<path d="M8.544 28.232V22.904H29.088V28.232H8.544ZM0.816 35L15.408 3.944H22.32L37.056 35H30.096L17.328 7.016H20.4L7.728 35H0.816ZM51.5633 30.92H49.3073L58.0433 11.144H64.8593L53.3873 35H47.4833L36.2513 11.144H43.1153L51.5633 30.92ZM75.657 0.679998V6.152H68.409V0.679998H75.657ZM68.889 11.144H75.129V35H68.889V11.144ZM95.4128 35.576C92.4048 35.576 89.7488 35.096 87.4448 34.136C85.1728 33.176 83.3968 31.784 82.1168 29.96C80.8368 28.104 80.1968 25.832 80.1968 23.144C80.1968 20.456 80.8368 18.184 82.1168 16.328C83.3968 14.44 85.1728 13.016 87.4448 12.056C89.7488 11.096 92.4048 10.616 95.4128 10.616C98.4208 10.616 101.045 11.096 103.285 12.056C105.557 13.016 107.333 14.44 108.613 16.328C109.893 18.184 110.533 20.456 110.533 23.144C110.533 25.832 109.893 28.104 108.613 29.96C107.333 31.784 105.557 33.176 103.285 34.136C101.045 35.096 98.4208 35.576 95.4128 35.576ZM95.4128 30.776C97.0768 30.776 98.5648 30.488 99.8768 29.912C101.221 29.304 102.277 28.44 103.045 27.32C103.813 26.168 104.197 24.776 104.197 23.144C104.197 21.512 103.813 20.12 103.045 18.968C102.277 17.784 101.237 16.888 99.9248 16.28C98.6128 15.672 97.1088 15.368 95.4128 15.368C93.7488 15.368 92.2448 15.672 90.9008 16.28C89.5568 16.888 88.4848 17.768 87.6848 18.92C86.9168 20.072 86.5328 21.48 86.5328 23.144C86.5328 24.776 86.9168 26.168 87.6848 27.32C88.4528 28.44 89.5088 29.304 90.8528 29.912C92.1968 30.488 93.7168 30.776 95.4128 30.776ZM115.146 11.144H121.386V35H115.146V11.144ZM130.554 16.28C128.762 16.28 127.21 16.632 125.898 17.336C124.586 18.008 123.53 18.84 122.73 19.832C121.93 20.824 121.37 21.784 121.05 22.712L121.002 20.072C121.034 19.688 121.162 19.128 121.386 18.392C121.61 17.624 121.946 16.808 122.394 15.944C122.842 15.048 123.434 14.2 124.17 13.4C124.906 12.568 125.802 11.896 126.858 11.384C127.914 10.872 129.146 10.616 130.554 10.616V16.28ZM133.451 27.08H139.211C139.563 28.168 140.283 29.064 141.371 29.768C142.491 30.44 143.947 30.776 145.739 30.776C146.955 30.776 147.899 30.664 148.571 30.44C149.243 30.216 149.707 29.896 149.963 29.48C150.219 29.032 150.347 28.536 150.347 27.992C150.347 27.32 150.139 26.808 149.723 26.456C149.307 26.072 148.667 25.768 147.803 25.544C146.939 25.32 145.835 25.112 144.491 24.92C143.147 24.696 141.851 24.424 140.603 24.104C139.355 23.784 138.251 23.368 137.291 22.856C136.331 22.312 135.563 21.64 134.987 20.84C134.443 20.008 134.171 19 134.171 17.816C134.171 16.664 134.443 15.64 134.987 14.744C135.563 13.848 136.347 13.096 137.339 12.488C138.363 11.88 139.547 11.416 140.891 11.096C142.267 10.776 143.739 10.616 145.307 10.616C147.675 10.616 149.643 10.968 151.211 11.672C152.779 12.344 153.947 13.304 154.715 14.552C155.515 15.768 155.915 17.176 155.915 18.776H150.395C150.139 17.592 149.627 16.744 148.859 16.232C148.091 15.688 146.907 15.416 145.307 15.416C143.739 15.416 142.555 15.656 141.755 16.136C140.955 16.616 140.555 17.272 140.555 18.104C140.555 18.776 140.795 19.304 141.275 19.688C141.787 20.04 142.523 20.328 143.483 20.552C144.475 20.776 145.707 21.016 147.179 21.272C148.427 21.528 149.611 21.816 150.731 22.136C151.883 22.456 152.907 22.872 153.803 23.384C154.699 23.864 155.403 24.52 155.915 25.352C156.459 26.152 156.731 27.176 156.731 28.424C156.731 29.96 156.283 31.256 155.387 32.312C154.523 33.368 153.275 34.184 151.643 34.76C150.011 35.304 148.059 35.576 145.787 35.576C143.771 35.576 142.027 35.368 140.555 34.952C139.115 34.504 137.915 33.944 136.955 33.272C135.995 32.568 135.243 31.832 134.699 31.064C134.187 30.264 133.835 29.512 133.643 28.808C133.451 28.104 133.387 27.528 133.451 27.08ZM175.569 35.576C172.561 35.576 169.905 35.096 167.601 34.136C165.329 33.176 163.553 31.784 162.273 29.96C160.993 28.104 160.353 25.832 160.353 23.144C160.353 20.456 160.993 18.184 162.273 16.328C163.553 14.44 165.329 13.016 167.601 12.056C169.905 11.096 172.561 10.616 175.569 10.616C178.577 10.616 181.201 11.096 183.441 12.056C185.713 13.016 187.489 14.44 188.769 16.328C190.049 18.184 190.689 20.456 190.689 23.144C190.689 25.832 190.049 28.104 188.769 29.96C187.489 31.784 185.713 33.176 183.441 34.136C181.201 35.096 178.577 35.576 175.569 35.576ZM175.569 30.776C177.233 30.776 178.721 30.488 180.033 29.912C181.377 29.304 182.433 28.44 183.201 27.32C183.969 26.168 184.353 24.776 184.353 23.144C184.353 21.512 183.969 20.12 183.201 18.968C182.433 17.784 181.393 16.888 180.081 16.28C178.769 15.672 177.265 15.368 175.569 15.368C173.905 15.368 172.401 15.672 171.057 16.28C169.713 16.888 168.641 17.768 167.841 18.92C167.073 20.072 166.689 21.48 166.689 23.144C166.689 24.776 167.073 26.168 167.841 27.32C168.609 28.44 169.665 29.304 171.009 29.912C172.353 30.488 173.873 30.776 175.569 30.776ZM195.782 1.544H202.022V35H195.782V1.544Z" fill="white"/>
</svg>
