<svg width="204" height="35" viewBox="0 0 204 35" fill="none" xmlns="http://www.w3.org/2000/svg">
<path d="M0.632 23.536H7.112C7.24 24.624 7.736 25.616 8.6 26.512C9.496 27.376 10.664 28.064 12.104 28.576C13.544 29.056 15.16 29.296 16.952 29.296C18.584 29.296 19.928 29.12 20.984 28.768C22.04 28.416 22.824 27.92 23.336 27.28C23.848 26.64 24.104 25.872 24.104 24.976C24.104 24.112 23.784 23.456 23.144 23.008C22.504 22.528 21.496 22.144 20.12 21.856C18.744 21.536 16.936 21.216 14.696 20.896C12.936 20.64 11.272 20.288 9.704 19.84C8.136 19.36 6.744 18.752 5.528 18.016C4.344 17.28 3.4 16.384 2.696 15.328C2.024 14.24 1.688 12.96 1.688 11.488C1.688 9.664 2.2 8.064 3.224 6.688C4.28 5.312 5.832 4.24 7.88 3.472C9.928 2.704 12.44 2.32 15.416 2.32C19.896 2.32 23.336 3.28 25.736 5.2C28.168 7.088 29.352 9.696 29.288 13.024H23.048C22.92 11.136 22.12 9.776 20.648 8.944C19.208 8.112 17.384 7.696 15.176 7.696C13.128 7.696 11.432 8 10.088 8.608C8.776 9.216 8.12 10.256 8.12 11.728C8.12 12.304 8.28 12.816 8.6 13.264C8.92 13.68 9.464 14.048 10.232 14.368C11 14.688 12.04 14.992 13.352 15.28C14.664 15.568 16.296 15.856 18.248 16.144C20.072 16.4 21.72 16.752 23.192 17.2C24.696 17.616 25.976 18.176 27.032 18.88C28.12 19.552 28.952 20.416 29.528 21.472C30.104 22.528 30.392 23.824 30.392 25.36C30.392 27.248 29.896 28.896 28.904 30.304C27.944 31.68 26.44 32.752 24.392 33.52C22.376 34.288 19.752 34.672 16.52 34.672C14.216 34.672 12.184 34.432 10.424 33.952C8.664 33.44 7.144 32.768 5.864 31.936C4.584 31.104 3.544 30.192 2.744 29.2C1.944 28.208 1.368 27.216 1.016 26.224C0.696 25.232 0.568 24.336 0.632 23.536ZM46.8241 34.528C44.4561 34.528 42.2961 34.016 40.3441 32.992C38.4241 31.936 36.8881 30.48 35.7361 28.624C34.6161 26.736 34.0561 24.56 34.0561 22.096C34.0561 19.568 34.6321 17.376 35.7841 15.52C36.9361 13.664 38.4881 12.224 40.4401 11.2C42.4241 10.144 44.6641 9.616 47.1601 9.616C49.9121 9.616 52.1201 10.176 53.7841 11.296C55.4801 12.384 56.7121 13.872 57.4801 15.76C58.2481 17.648 58.6321 19.76 58.6321 22.096C58.6321 23.504 58.4081 24.944 57.9601 26.416C57.5121 27.856 56.8241 29.2 55.8961 30.448C54.9681 31.664 53.7521 32.656 52.2481 33.424C50.7441 34.16 48.9361 34.528 46.8241 34.528ZM48.8401 29.728C50.7281 29.728 52.3601 29.408 53.7361 28.768C55.1121 28.128 56.1681 27.232 56.9041 26.08C57.6401 24.928 58.0081 23.6 58.0081 22.096C58.0081 20.464 57.6241 19.088 56.8561 17.968C56.1201 16.816 55.0641 15.952 53.6881 15.376C52.3441 14.768 50.7281 14.464 48.8401 14.464C46.1841 14.464 44.1201 15.168 42.6481 16.576C41.1761 17.952 40.4401 19.792 40.4401 22.096C40.4401 23.632 40.7921 24.976 41.4961 26.128C42.2001 27.248 43.1761 28.128 44.4241 28.768C45.7041 29.408 47.1761 29.728 48.8401 29.728ZM58.0081 10.144H64.2481V34H58.4401C58.4401 34 58.3921 33.696 58.2961 33.088C58.2321 32.448 58.1681 31.648 58.1041 30.688C58.0401 29.728 58.0081 28.784 58.0081 27.856V10.144ZM69.8956 10.144H76.1356V34H69.8956V10.144ZM85.3036 15.28C83.5116 15.28 81.9596 15.632 80.6476 16.336C79.3356 17.008 78.2796 17.84 77.4796 18.832C76.6796 19.824 76.1196 20.784 75.7996 21.712L75.7516 19.072C75.7836 18.688 75.9116 18.128 76.1356 17.392C76.3596 16.624 76.6956 15.808 77.1436 14.944C77.5916 14.048 78.1836 13.2 78.9196 12.4C79.6556 11.568 80.5516 10.896 81.6076 10.384C82.6636 9.872 83.8956 9.616 85.3036 9.616V15.28ZM87.6219 10.144H106.15V14.992H87.6219V10.144ZM93.7659 3.616H100.006V34H93.7659V3.616ZM131.53 26.08H137.578C137.322 27.712 136.634 29.168 135.514 30.448C134.426 31.728 132.938 32.736 131.05 33.472C129.162 34.208 126.858 34.576 124.138 34.576C121.098 34.576 118.41 34.096 116.074 33.136C113.738 32.144 111.914 30.72 110.602 28.864C109.29 27.008 108.634 24.768 108.634 22.144C108.634 19.52 109.274 17.28 110.554 15.424C111.834 13.536 113.61 12.096 115.882 11.104C118.186 10.112 120.874 9.616 123.946 9.616C127.082 9.616 129.69 10.112 131.77 11.104C133.85 12.096 135.386 13.6 136.378 15.616C137.402 17.6 137.834 20.144 137.674 23.248H114.922C115.082 24.464 115.53 25.568 116.266 26.56C117.034 27.552 118.058 28.336 119.338 28.912C120.65 29.488 122.202 29.776 123.994 29.776C125.978 29.776 127.626 29.44 128.938 28.768C130.282 28.064 131.146 27.168 131.53 26.08ZM123.658 14.368C121.354 14.368 119.482 14.88 118.042 15.904C116.602 16.896 115.674 18.128 115.258 19.6H131.482C131.322 18 130.554 16.736 129.178 15.808C127.834 14.848 125.994 14.368 123.658 14.368ZM170.638 24.592C170.478 26.672 169.806 28.464 168.622 29.968C167.47 31.472 165.87 32.624 163.822 33.424C161.774 34.192 159.342 34.576 156.526 34.576C153.582 34.576 150.942 34.112 148.606 33.184C146.302 32.224 144.478 30.832 143.134 29.008C141.822 27.152 141.166 24.864 141.166 22.144C141.166 19.424 141.822 17.136 143.134 15.28C144.478 13.424 146.302 12.016 148.606 11.056C150.942 10.096 153.582 9.616 156.526 9.616C159.342 9.616 161.758 10.016 163.774 10.816C165.79 11.584 167.374 12.704 168.526 14.176C169.71 15.648 170.398 17.424 170.59 19.504H164.878C164.334 17.904 163.326 16.656 161.854 15.76C160.382 14.864 158.606 14.416 156.526 14.416C154.862 14.416 153.342 14.704 151.966 15.28C150.622 15.856 149.534 16.72 148.702 17.872C147.902 18.992 147.502 20.416 147.502 22.144C147.502 23.84 147.902 25.264 148.702 26.416C149.502 27.536 150.59 28.384 151.966 28.96C153.342 29.504 154.862 29.776 156.526 29.776C158.766 29.776 160.59 29.328 161.998 28.432C163.438 27.536 164.414 26.256 164.926 24.592H170.638ZM197.016 34V20.896C197.016 19.584 196.792 18.496 196.344 17.632C195.896 16.768 195.176 16.112 194.184 15.664C193.224 15.216 191.928 14.992 190.296 14.992C188.728 14.992 187.304 15.296 186.024 15.904C184.744 16.48 183.704 17.248 182.904 18.208C182.104 19.136 181.656 20.128 181.56 21.184L181.512 18.544C181.672 17.488 182.04 16.432 182.616 15.376C183.192 14.32 183.96 13.36 184.92 12.496C185.88 11.632 187.032 10.944 188.376 10.432C189.752 9.888 191.288 9.616 192.984 9.616C194.456 9.616 195.816 9.808 197.064 10.192C198.312 10.544 199.4 11.104 200.328 11.872C201.256 12.64 201.976 13.6 202.488 14.752C203 15.872 203.256 17.2 203.256 18.736V34H197.016ZM175.656 34V0.543999H181.896V34H175.656Z" fill="white"/>
</svg>
