<svg width="58" height="42" viewBox="0 0 58 42" fill="none" xmlns="http://www.w3.org/2000/svg">
<path d="M13.8187 16.7124L22.3761 27.4046L22.3657 27.4149L22.3491 27.4541L16.7873 40.8116H2.74908L11.3977 21.9811L13.8187 16.7124Z" fill="url(#paint0_linear_199_219)"/>
<path d="M40.0572 9.61452L39.9742 9.6971L37.1756 12.5131C36.3085 13.1283 35.4455 13.9521 34.651 15.0525L26.218 23.5357L24.8634 20.2345L14.0054 16.3015L16.1981 11.5263L21.2102 0.619354H36.1156L40.0572 9.61452Z" fill="url(#paint1_linear_199_219)"/>
<path d="M43.8079 10.8594C43.8079 10.8594 40.4596 10.1864 37.1757 12.5152C36.3085 13.1304 35.4455 13.9542 34.651 15.0546C33.6428 16.4502 32.7404 18.2918 32.0765 20.7155L28.7116 29.6157L26.2201 23.5377L24.8655 20.2365L14.0075 16.3036L0.823914 11.5284H28.7096L30.2489 15.451C30.2489 15.451 33.4913 8.99724 39.9742 9.69711C41.1484 9.82511 42.4242 10.1843 43.8079 10.8594Z" fill="white"/>
<path d="M22.4611 27.5099L22.3491 27.4541L11.3977 21.9811L0.823914 16.6959H13.8062L13.8187 16.7124L22.3761 27.4046L22.4611 27.5099Z" fill="white"/>
<path d="M57.174 11.4334C57.174 11.4334 41.1152 11.2414 39.4804 21.7684C39.4804 21.7684 35.0576 43.3964 17.364 41.0986C17.364 41.0986 26.9794 42.0566 30.9231 30.5716L35.0576 19.9496C35.0576 19.9496 37.3644 12.6762 44.673 11.4334H57.174Z" fill="url(#paint2_linear_199_219)"/>
<path d="M42.8142 15.8164L54.1929 41.2906H40.443L36.045 30.6542L37.269 20.2386C37.269 20.2365 40.5675 15.0339 42.8142 15.8164Z" fill="url(#paint3_linear_199_219)"/>
<defs>
<linearGradient id="paint0_linear_199_219" x1="11.2323" y1="37.5326" x2="25.4113" y2="5.47575" gradientUnits="userSpaceOnUse">
<stop stop-color="#3C1477"/>
<stop offset="1" stop-color="#0AA4F8"/>
</linearGradient>
<linearGradient id="paint1_linear_199_219" x1="15.262" y1="39.315" x2="29.441" y2="7.25813" gradientUnits="userSpaceOnUse">
<stop stop-color="#3C1477"/>
<stop offset="1" stop-color="#0AA4F8"/>
</linearGradient>
<linearGradient id="paint2_linear_199_219" x1="28.7731" y1="45.291" x2="42.952" y2="13.2341" gradientUnits="userSpaceOnUse">
<stop stop-color="#3C1477"/>
<stop offset="1" stop-color="#0AA4F8"/>
</linearGradient>
<linearGradient id="paint3_linear_199_219" x1="37.5167" y1="49.1583" x2="51.6956" y2="17.1015" gradientUnits="userSpaceOnUse">
<stop stop-color="#3C1477"/>
<stop offset="1" stop-color="#0AA4F8"/>
</linearGradient>
</defs>
</svg>
