<svg width="56" height="86" viewBox="0 0 56 86" fill="none" xmlns="http://www.w3.org/2000/svg">
<path d="M38.9402 0.60737C38.1711 0.299583 37.2981 0.673574 36.9903 1.4427C36.6825 2.21183 37.0565 3.08484 37.8257 3.39263L38.9402 0.60737ZM41.1185 43.3216L40.0812 42.2381L40.0256 42.2913L39.9758 42.3499L41.1185 43.3216ZM14.5836 43.3216L16.0052 42.843L14.5836 43.3216ZM29.3556 40.8256L30.5884 39.9711L29.3556 40.8256ZM1.01056 72.7C0.387922 73.2465 0.326156 74.1942 0.872607 74.8169L9.77753 84.9634C10.324 85.586 11.2717 85.6478 11.8944 85.1013C12.517 84.5549 12.5788 83.6072 12.0323 82.9845L4.11683 73.9654L13.136 66.0499C13.7586 65.5034 13.8204 64.5557 13.2739 63.9331C12.7275 63.3104 11.7797 63.2486 11.1571 63.7951L1.01056 72.7ZM37.8257 3.39263C42.8857 5.41755 49.2959 9.57246 51.5704 15.8021C53.7686 21.8226 52.3277 30.5132 40.0812 42.2381L42.1558 44.4051C54.7908 32.3083 57.1797 22.4181 54.3885 14.7732C51.6736 7.33743 44.2753 2.74234 38.9402 0.60737L37.8257 3.39263ZM39.9758 42.3499C36.9523 45.9055 31.439 47.6326 26.2222 47.5297C23.6424 47.4788 21.2578 46.9789 19.4219 46.1218C17.5738 45.259 16.4328 44.1134 16.0052 42.843L13.1619 43.8001C13.9425 46.119 15.8676 47.7733 18.1528 48.8401C20.4502 49.9126 23.266 50.472 26.163 50.5291C31.8999 50.6422 38.4459 48.7801 42.2612 44.2933L39.9758 42.3499ZM16.0052 42.843C14.9211 39.6227 15.1939 37.9793 15.6658 37.2288C16.0792 36.5714 16.9657 36.1372 18.5766 36.2588C20.1586 36.3783 22.08 37.0334 23.8832 38.0559C25.6874 39.079 27.2261 40.3865 28.1228 41.6802L30.5884 39.9711C29.3618 38.2015 27.4298 36.6183 25.363 35.4463C23.2953 34.2737 20.9452 33.4291 18.8025 33.2674C16.6888 33.1078 14.3972 33.6107 13.1262 35.6318C11.9138 37.5599 11.996 40.3364 13.1619 43.8001L16.0052 42.843ZM28.1228 41.6802C31.5143 46.573 33.9986 54.9075 31.3159 61.5486C28.7372 67.9321 20.9901 73.5618 2.09755 72.3306L1.90245 75.3242C21.3078 76.5889 30.7947 70.8483 34.0975 62.6722C37.2963 54.7537 34.3094 45.3393 30.5884 39.9711L28.1228 41.6802Z" fill="white"/>
</svg>
